<svg width="49" height="14" viewBox="0 0 49 14" fill="none" xmlns="http://www.w3.org/2000/svg">
<path d="M4.228 12.112C3.51867 12.112 2.856 12.0047 2.24 11.79C1.624 11.566 1.08733 11.244 0.63 10.824L1.064 9.942C1.55867 10.362 2.05333 10.6653 2.548 10.852C3.052 11.0387 3.60733 11.132 4.214 11.132C4.96067 11.132 5.53933 10.9733 5.95 10.656C6.37 10.3387 6.58 9.89533 6.58 9.326C6.58 8.98067 6.47267 8.70533 6.258 8.5C6.05267 8.29467 5.77733 8.13133 5.432 8.01C5.096 7.87933 4.72267 7.76733 4.312 7.674C3.90133 7.57133 3.49067 7.45933 3.08 7.338C2.66933 7.21667 2.29133 7.058 1.946 6.862C1.60067 6.65667 1.32533 6.39067 1.12 6.064C0.914667 5.73733 0.812 5.31267 0.812 4.79C0.812 4.23 0.961333 3.73533 1.26 3.306C1.55867 2.86733 1.96933 2.52667 2.492 2.284C3.024 2.04133 3.63067 1.92 4.312 1.92C4.732 1.92 5.14267 1.97133 5.544 2.074C5.95467 2.16733 6.33733 2.30733 6.692 2.494C7.04667 2.68067 7.35933 2.90933 7.63 3.18L7.196 4.062C6.37467 3.28733 5.41333 2.9 4.312 2.9C3.59333 2.9 3.024 3.06333 2.604 3.39C2.19333 3.71667 1.988 4.16933 1.988 4.748C1.988 5.13067 2.09067 5.43867 2.296 5.672C2.50133 5.896 2.77667 6.078 3.122 6.218C3.46733 6.34867 3.84533 6.46533 4.256 6.568C4.66667 6.66133 5.07267 6.76867 5.474 6.89C5.88467 7.002 6.26267 7.15133 6.608 7.338C6.95333 7.52467 7.22867 7.77667 7.434 8.094C7.63933 8.402 7.742 8.80333 7.742 9.298C7.742 9.858 7.59267 10.348 7.294 10.768C6.99533 11.188 6.58 11.5193 6.048 11.762C5.52533 11.9953 4.91867 12.112 4.228 12.112ZM3.85 13.624V11.916L3.892 11.356V2.578L3.85 2.102V0.407999H4.83V2.102L4.788 2.578V11.356L4.83 11.916V13.624H3.85ZM16.2449 12.098C15.5169 12.098 14.8869 11.9907 14.3549 11.776C13.8229 11.552 13.4076 11.2347 13.1089 10.824C12.8196 10.4133 12.6749 9.92333 12.6749 9.354C12.6749 8.66333 12.9083 8.08933 13.3749 7.632C13.8416 7.17467 14.4669 6.89 15.2509 6.778L15.1809 6.988C14.4529 6.848 13.8883 6.56333 13.4869 6.134C13.0949 5.70467 12.8989 5.182 12.8989 4.566C12.8989 4.02467 13.0389 3.558 13.3189 3.166C13.6083 2.76467 14.0003 2.45667 14.4949 2.242C14.9989 2.02733 15.5823 1.92 16.2449 1.92C16.9076 1.92 17.4863 2.02733 17.9809 2.242C18.4849 2.45667 18.8769 2.76467 19.1569 3.166C19.4463 3.558 19.5909 4.02467 19.5909 4.566C19.5909 5.182 19.3903 5.70933 18.9889 6.148C18.5969 6.57733 18.0416 6.85733 17.3229 6.988L17.2389 6.778C18.0509 6.89 18.6809 7.17933 19.1289 7.646C19.5863 8.10333 19.8149 8.67267 19.8149 9.354C19.8149 9.92333 19.6656 10.4133 19.3669 10.824C19.0776 11.2347 18.6669 11.552 18.1349 11.776C17.6029 11.9907 16.9729 12.098 16.2449 12.098ZM16.2449 11.146C17.0289 11.146 17.6309 10.9873 18.0509 10.67C18.4709 10.3527 18.6809 9.89067 18.6809 9.284C18.6809 8.71467 18.4523 8.27133 17.9949 7.954C17.5376 7.62733 16.9543 7.42667 16.2449 7.352C15.5356 7.42667 14.9523 7.62733 14.4949 7.954C14.0376 8.27133 13.8089 8.71467 13.8089 9.284C13.8089 9.89067 14.0189 10.3527 14.4389 10.67C14.8589 10.9873 15.4609 11.146 16.2449 11.146ZM16.2449 6.554C16.8983 6.47933 17.4256 6.27867 17.8269 5.952C18.2376 5.62533 18.4429 5.19133 18.4429 4.65C18.4429 4.09 18.2469 3.656 17.8549 3.348C17.4723 3.03067 16.9356 2.872 16.2449 2.872C15.5543 2.872 15.0129 3.03067 14.6209 3.348C14.2383 3.656 14.0469 4.09 14.0469 4.65C14.0469 5.19133 14.2476 5.62533 14.6489 5.952C15.0596 6.27867 15.5916 6.47933 16.2449 6.554ZM21.9235 13.61L21.3915 13.204C21.6435 12.9333 21.8115 12.686 21.8955 12.462C21.9795 12.238 22.0215 12.0093 22.0215 11.776L22.3575 12H21.3355V10.558H22.7775V11.58C22.7775 11.9533 22.7121 12.3033 22.5815 12.63C22.4601 12.966 22.2408 13.2927 21.9235 13.61ZM28.0337 12.098C27.427 12.098 26.8297 11.9907 26.2417 11.776C25.6537 11.552 25.159 11.2487 24.7577 10.866L25.1917 9.984C25.649 10.3573 26.111 10.642 26.5777 10.838C27.0537 11.034 27.539 11.132 28.0337 11.132C28.7337 11.132 29.2797 10.936 29.6717 10.544C30.073 10.1427 30.2737 9.60133 30.2737 8.92C30.2737 8.48133 30.185 8.09867 30.0077 7.772C29.8304 7.436 29.5784 7.17467 29.2517 6.988C28.9344 6.80133 28.5564 6.708 28.1177 6.708C27.6417 6.708 27.2124 6.806 26.8297 7.002C26.4564 7.18867 26.125 7.478 25.8357 7.87H25.0377V2.032H31.0157V2.984H26.1857V7.016L25.8217 6.974C26.0924 6.582 26.4377 6.27867 26.8577 6.064C27.287 5.84933 27.7677 5.742 28.2997 5.742C28.9344 5.742 29.485 5.87733 29.9517 6.148C30.4184 6.40933 30.7777 6.778 31.0297 7.254C31.2817 7.73 31.4077 8.28067 31.4077 8.906C31.4077 9.53133 31.2677 10.0867 30.9877 10.572C30.717 11.048 30.3297 11.4213 29.8257 11.692C29.3217 11.9627 28.7244 12.098 28.0337 12.098ZM36.2742 12.112C35.1356 12.112 34.2676 11.6827 33.6702 10.824C33.0822 9.956 32.7882 8.68667 32.7882 7.016C32.7882 5.34533 33.0822 4.08067 33.6702 3.222C34.2582 2.354 35.1262 1.92 36.2742 1.92C37.4222 1.92 38.2902 2.354 38.8782 3.222C39.4662 4.08067 39.7602 5.34067 39.7602 7.002C39.7602 8.67267 39.4616 9.942 38.8642 10.81C38.2762 11.678 37.4129 12.112 36.2742 12.112ZM36.2742 11.146C37.0676 11.146 37.6509 10.81 38.0242 10.138C38.4069 9.466 38.5982 8.42067 38.5982 7.002C38.5982 5.58333 38.4069 4.54733 38.0242 3.894C37.6509 3.23133 37.0676 2.9 36.2742 2.9C35.4809 2.9 34.8929 3.23133 34.5102 3.894C34.1369 4.55667 33.9502 5.59267 33.9502 7.002C33.9502 8.42067 34.1369 9.466 34.5102 10.138C34.8929 10.81 35.4809 11.146 36.2742 11.146ZM44.6688 12.112C43.5301 12.112 42.6621 11.6827 42.0648 10.824C41.4768 9.956 41.1828 8.68667 41.1828 7.016C41.1828 5.34533 41.4768 4.08067 42.0648 3.222C42.6528 2.354 43.5208 1.92 44.6688 1.92C45.8168 1.92 46.6848 2.354 47.2728 3.222C47.8608 4.08067 48.1548 5.34067 48.1548 7.002C48.1548 8.67267 47.8561 9.942 47.2588 10.81C46.6708 11.678 45.8074 12.112 44.6688 12.112ZM44.6688 11.146C45.4621 11.146 46.0454 10.81 46.4188 10.138C46.8014 9.466 46.9928 8.42067 46.9928 7.002C46.9928 5.58333 46.8014 4.54733 46.4188 3.894C46.0454 3.23133 45.4621 2.9 44.6688 2.9C43.8754 2.9 43.2874 3.23133 42.9048 3.894C42.5314 4.55667 42.3448 5.59267 42.3448 7.002C42.3448 8.42067 42.5314 9.466 42.9048 10.138C43.2874 10.81 43.8754 11.146 44.6688 11.146Z" fill="white"/>
<path d="M0 7.786H48.8688V8.486H0V7.786Z" fill="white"/>
</svg>
