<svg width="58" height="14" viewBox="0 0 58 14" fill="none" xmlns="http://www.w3.org/2000/svg">
<path d="M4.228 12.112C3.51867 12.112 2.856 12.0047 2.24 11.79C1.624 11.566 1.08733 11.244 0.63 10.824L1.064 9.942C1.55867 10.362 2.05333 10.6653 2.548 10.852C3.052 11.0387 3.60733 11.132 4.214 11.132C4.96067 11.132 5.53933 10.9733 5.95 10.656C6.37 10.3387 6.58 9.89533 6.58 9.326C6.58 8.98067 6.47267 8.70533 6.258 8.5C6.05267 8.29467 5.77733 8.13133 5.432 8.01C5.096 7.87933 4.72267 7.76733 4.312 7.674C3.90133 7.57133 3.49067 7.45933 3.08 7.338C2.66933 7.21667 2.29133 7.058 1.946 6.862C1.60067 6.65667 1.32533 6.39067 1.12 6.064C0.914667 5.73733 0.812 5.31267 0.812 4.79C0.812 4.23 0.961333 3.73533 1.26 3.306C1.55867 2.86733 1.96933 2.52667 2.492 2.284C3.024 2.04133 3.63067 1.92 4.312 1.92C4.732 1.92 5.14267 1.97133 5.544 2.074C5.95467 2.16733 6.33733 2.30733 6.692 2.494C7.04667 2.68067 7.35933 2.90933 7.63 3.18L7.196 4.062C6.37467 3.28733 5.41333 2.9 4.312 2.9C3.59333 2.9 3.024 3.06333 2.604 3.39C2.19333 3.71667 1.988 4.16933 1.988 4.748C1.988 5.13067 2.09067 5.43867 2.296 5.672C2.50133 5.896 2.77667 6.078 3.122 6.218C3.46733 6.34867 3.84533 6.46533 4.256 6.568C4.66667 6.66133 5.07267 6.76867 5.474 6.89C5.88467 7.002 6.26267 7.15133 6.608 7.338C6.95333 7.52467 7.22867 7.77667 7.434 8.094C7.63933 8.402 7.742 8.80333 7.742 9.298C7.742 9.858 7.59267 10.348 7.294 10.768C6.99533 11.188 6.58 11.5193 6.048 11.762C5.52533 11.9953 4.91867 12.112 4.228 12.112ZM3.85 13.624V11.916L3.892 11.356V2.578L3.85 2.102V0.407999H4.83V2.102L4.788 2.578V11.356L4.83 11.916V13.624H3.85ZM16.0349 11.482V2.704L16.6929 3.04L13.9909 4.762V3.656L16.5389 2.032H17.1969V11.482H16.0349ZM13.8369 12V11.034H19.3949V12H13.8369ZM24.6395 12.112C23.5008 12.112 22.6328 11.6827 22.0355 10.824C21.4475 9.956 21.1535 8.68667 21.1535 7.016C21.1535 5.34533 21.4475 4.08067 22.0355 3.222C22.6235 2.354 23.4915 1.92 24.6395 1.92C25.7875 1.92 26.6555 2.354 27.2435 3.222C27.8315 4.08067 28.1255 5.34067 28.1255 7.002C28.1255 8.67267 27.8268 9.942 27.2295 10.81C26.6415 11.678 25.7781 12.112 24.6395 12.112ZM24.6395 11.146C25.4328 11.146 26.0161 10.81 26.3895 10.138C26.7721 9.466 26.9635 8.42067 26.9635 7.002C26.9635 5.58333 26.7721 4.54733 26.3895 3.894C26.0161 3.23133 25.4328 2.9 24.6395 2.9C23.8461 2.9 23.2581 3.23133 22.8755 3.894C22.5021 4.55667 22.3155 5.59267 22.3155 7.002C22.3155 8.42067 22.5021 9.466 22.8755 10.138C23.2581 10.81 23.8461 11.146 24.6395 11.146ZM30.318 13.61L29.786 13.204C30.038 12.9333 30.206 12.686 30.29 12.462C30.374 12.238 30.416 12.0093 30.416 11.776L30.752 12H29.73V10.558H31.172V11.58C31.172 11.9533 31.1067 12.3033 30.976 12.63C30.8547 12.966 30.6353 13.2927 30.318 13.61ZM36.4282 12.098C35.8216 12.098 35.2242 11.9907 34.6362 11.776C34.0482 11.552 33.5536 11.2487 33.1522 10.866L33.5862 9.984C34.0436 10.3573 34.5056 10.642 34.9722 10.838C35.4482 11.034 35.9336 11.132 36.4282 11.132C37.1282 11.132 37.6742 10.936 38.0662 10.544C38.4676 10.1427 38.6682 9.60133 38.6682 8.92C38.6682 8.48133 38.5796 8.09867 38.4022 7.772C38.2249 7.436 37.9729 7.17467 37.6462 6.988C37.3289 6.80133 36.9509 6.708 36.5122 6.708C36.0362 6.708 35.6069 6.806 35.2242 7.002C34.8509 7.18867 34.5196 7.478 34.2302 7.87H33.4322V2.032H39.4102V2.984H34.5802V7.016L34.2162 6.974C34.4869 6.582 34.8322 6.27867 35.2522 6.064C35.6816 5.84933 36.1622 5.742 36.6942 5.742C37.3289 5.742 37.8796 5.87733 38.3462 6.148C38.8129 6.40933 39.1722 6.778 39.4242 7.254C39.6762 7.73 39.8022 8.28067 39.8022 8.906C39.8022 9.53133 39.6622 10.0867 39.3822 10.572C39.1116 11.048 38.7242 11.4213 38.2202 11.692C37.7162 11.9627 37.1189 12.098 36.4282 12.098ZM44.6688 12.112C43.5301 12.112 42.6621 11.6827 42.0648 10.824C41.4768 9.956 41.1828 8.68667 41.1828 7.016C41.1828 5.34533 41.4768 4.08067 42.0648 3.222C42.6528 2.354 43.5208 1.92 44.6688 1.92C45.8168 1.92 46.6848 2.354 47.2728 3.222C47.8608 4.08067 48.1548 5.34067 48.1548 7.002C48.1548 8.67267 47.8561 9.942 47.2588 10.81C46.6708 11.678 45.8074 12.112 44.6688 12.112ZM44.6688 11.146C45.4621 11.146 46.0454 10.81 46.4188 10.138C46.8014 9.466 46.9928 8.42067 46.9928 7.002C46.9928 5.58333 46.8014 4.54733 46.4188 3.894C46.0454 3.23133 45.4621 2.9 44.6688 2.9C43.8754 2.9 43.2874 3.23133 42.9048 3.894C42.5314 4.55667 42.3448 5.59267 42.3448 7.002C42.3448 8.42067 42.5314 9.466 42.9048 10.138C43.2874 10.81 43.8754 11.146 44.6688 11.146ZM53.0633 12.112C51.9246 12.112 51.0566 11.6827 50.4593 10.824C49.8713 9.956 49.5773 8.68667 49.5773 7.016C49.5773 5.34533 49.8713 4.08067 50.4593 3.222C51.0473 2.354 51.9153 1.92 53.0633 1.92C54.2113 1.92 55.0793 2.354 55.6673 3.222C56.2553 4.08067 56.5493 5.34067 56.5493 7.002C56.5493 8.67267 56.2506 9.942 55.6533 10.81C55.0653 11.678 54.2019 12.112 53.0633 12.112ZM53.0633 11.146C53.8566 11.146 54.4399 10.81 54.8133 10.138C55.1959 9.466 55.3873 8.42067 55.3873 7.002C55.3873 5.58333 55.1959 4.54733 54.8133 3.894C54.4399 3.23133 53.8566 2.9 53.0633 2.9C52.2699 2.9 51.6819 3.23133 51.2993 3.894C50.9259 4.55667 50.7393 5.59267 50.7393 7.002C50.7393 8.42067 50.9259 9.466 51.2993 10.138C51.6819 10.81 52.2699 11.146 53.0633 11.146Z" fill="white"/>
<path d="M0 7.786H57.2633V8.486H0V7.786Z" fill="white"/>
</svg>
