<svg width="48" height="8" viewBox="0 0 48 8" fill="none" xmlns="http://www.w3.org/2000/svg">
<path fill-rule="evenodd" clip-rule="evenodd" d="M3.99993 0.333374C4.1268 0.333374 4.24267 0.405398 4.29883 0.519166L5.25135 2.44886L7.38147 2.76021C7.50699 2.77856 7.61122 2.86656 7.65034 2.98723C7.68947 3.1079 7.65671 3.24032 7.56584 3.32883L6.02477 4.82983L6.38846 6.95036C6.40991 7.07542 6.3585 7.20182 6.25584 7.27639C6.15318 7.35097 6.01708 7.36079 5.90478 7.30173L3.99993 6.29999L2.09508 7.30173C1.98277 7.36079 1.84668 7.35097 1.74402 7.27639C1.64136 7.20182 1.58994 7.07542 1.61139 6.95036L1.97509 4.82983L0.434017 3.32883C0.343145 3.24032 0.310387 3.1079 0.349513 2.98723C0.388639 2.86656 0.492866 2.77856 0.618386 2.76021L2.74851 2.44886L3.70103 0.519166C3.75718 0.405398 3.87306 0.333374 3.99993 0.333374ZM3.99993 1.41979L3.26883 2.90092C3.22032 2.9992 3.12659 3.06735 3.01814 3.0832L1.38273 3.32224L2.56584 4.47459C2.64446 4.55117 2.68035 4.66155 2.6618 4.76972L2.38265 6.39727L3.84478 5.62835C3.94191 5.57727 4.05795 5.57727 4.15508 5.62835L5.6172 6.39727L5.33806 4.76972C5.31951 4.66155 5.35539 4.55117 5.43402 4.47459L6.61712 3.32224L4.98172 3.0832C4.87327 3.06735 4.77954 2.9992 4.73103 2.90092L3.99993 1.41979Z" fill="#F2994A"/>
<path d="M2.33333 5L1 3L3 2.66667L4 1L5 2.66667L7 3.33333L5.66667 4.66667L6 7L4 6L2 7L2.33333 5Z" fill="#F2994A"/>
<path fill-rule="evenodd" clip-rule="evenodd" d="M13.9999 0.333374C14.1268 0.333374 14.2427 0.405398 14.2988 0.519166L15.2513 2.44886L17.3815 2.76021C17.507 2.77856 17.6112 2.86656 17.6503 2.98723C17.6895 3.1079 17.6567 3.24032 17.5658 3.32883L16.0248 4.82983L16.3885 6.95036C16.4099 7.07542 16.3585 7.20182 16.2558 7.27639C16.1532 7.35097 16.0171 7.36079 15.9048 7.30173L13.9999 6.29999L12.0951 7.30173C11.9828 7.36079 11.8467 7.35097 11.744 7.27639C11.6414 7.20182 11.5899 7.07542 11.6114 6.95036L11.9751 4.82983L10.434 3.32883C10.3431 3.24032 10.3104 3.1079 10.3495 2.98723C10.3886 2.86656 10.4929 2.77856 10.6184 2.76021L12.7485 2.44886L13.701 0.519166C13.7572 0.405398 13.8731 0.333374 13.9999 0.333374ZM13.9999 1.41979L13.2688 2.90092C13.2203 2.9992 13.1266 3.06735 13.0181 3.0832L11.3827 3.32224L12.5658 4.47459C12.6445 4.55117 12.6804 4.66155 12.6618 4.76972L12.3827 6.39727L13.8448 5.62835C13.9419 5.57727 14.058 5.57727 14.1551 5.62835L15.6172 6.39727L15.3381 4.76972C15.3195 4.66155 15.3554 4.55117 15.434 4.47459L16.6171 3.32224L14.9817 3.0832C14.8733 3.06735 14.7795 2.9992 14.731 2.90092L13.9999 1.41979Z" fill="#F2994A"/>
<path d="M12.3333 5L11 3L13 2.66667L14 1L15 2.66667L17 3.33333L15.6667 4.66667L16 7L14 6L12 7L12.3333 5Z" fill="#F2994A"/>
<path fill-rule="evenodd" clip-rule="evenodd" d="M23.9999 0.333374C24.1268 0.333374 24.2427 0.405398 24.2988 0.519166L25.2513 2.44886L27.3815 2.76021C27.507 2.77856 27.6112 2.86656 27.6503 2.98723C27.6895 3.1079 27.6567 3.24032 27.5658 3.32883L26.0248 4.82983L26.3885 6.95036C26.4099 7.07542 26.3585 7.20182 26.2558 7.27639C26.1532 7.35097 26.0171 7.36079 25.9048 7.30173L23.9999 6.29999L22.0951 7.30173C21.9828 7.36079 21.8467 7.35097 21.744 7.27639C21.6414 7.20182 21.5899 7.07542 21.6114 6.95036L21.9751 4.82983L20.434 3.32883C20.3431 3.24032 20.3104 3.1079 20.3495 2.98723C20.3886 2.86656 20.4929 2.77856 20.6184 2.76021L22.7485 2.44886L23.701 0.519166C23.7572 0.405398 23.8731 0.333374 23.9999 0.333374ZM23.9999 1.41979L23.2688 2.90092C23.2203 2.9992 23.1266 3.06735 23.0181 3.0832L21.3827 3.32224L22.5658 4.47459C22.6445 4.55117 22.6804 4.66155 22.6618 4.76972L22.3827 6.39727L23.8448 5.62835C23.9419 5.57727 24.058 5.57727 24.1551 5.62835L25.6172 6.39727L25.3381 4.76972C25.3195 4.66155 25.3554 4.55117 25.434 4.47459L26.6171 3.32224L24.9817 3.0832C24.8733 3.06735 24.7795 2.9992 24.731 2.90092L23.9999 1.41979Z" fill="#F2994A"/>
<path d="M22.3333 5L21 3L23 2.66667L24 1L25 2.66667L27 3.33333L25.6667 4.66667L26 7L24 6L22 7L22.3333 5Z" fill="#F2994A"/>
<path fill-rule="evenodd" clip-rule="evenodd" d="M33.9999 0.333374C34.1268 0.333374 34.2427 0.405398 34.2988 0.519166L35.2513 2.44886L37.3815 2.76021C37.507 2.77856 37.6112 2.86656 37.6503 2.98723C37.6895 3.1079 37.6567 3.24032 37.5658 3.32883L36.0248 4.82983L36.3885 6.95036C36.4099 7.07542 36.3585 7.20182 36.2558 7.27639C36.1532 7.35097 36.0171 7.36079 35.9048 7.30173L33.9999 6.29999L32.0951 7.30173C31.9828 7.36079 31.8467 7.35097 31.744 7.27639C31.6414 7.20182 31.5899 7.07542 31.6114 6.95036L31.9751 4.82983L30.434 3.32883C30.3431 3.24032 30.3104 3.1079 30.3495 2.98723C30.3886 2.86656 30.4929 2.77856 30.6184 2.76021L32.7485 2.44886L33.701 0.519166C33.7572 0.405398 33.8731 0.333374 33.9999 0.333374ZM33.9999 1.41979L33.2688 2.90092C33.2203 2.9992 33.1266 3.06735 33.0181 3.0832L31.3827 3.32224L32.5658 4.47459C32.6445 4.55117 32.6804 4.66155 32.6618 4.76972L32.3827 6.39727L33.8448 5.62835C33.9419 5.57727 34.058 5.57727 34.1551 5.62835L35.6172 6.39727L35.3381 4.76972C35.3195 4.66155 35.3554 4.55117 35.434 4.47459L36.6171 3.32224L34.9817 3.0832C34.8733 3.06735 34.7795 2.9992 34.731 2.90092L33.9999 1.41979Z" fill="#F2994A"/>
<path d="M32.3333 5L31 3L33 2.66667L34 1L35 2.66667L37 3.33333L35.6667 4.66667L36 7L34 6L32 7L32.3333 5Z" fill="#F2994A"/>
<path fill-rule="evenodd" clip-rule="evenodd" d="M43.9999 0.333374C44.1268 0.333374 44.2427 0.405398 44.2988 0.519166L45.2513 2.44886L47.3815 2.76021C47.507 2.77856 47.6112 2.86656 47.6503 2.98723C47.6895 3.1079 47.6567 3.24032 47.5658 3.32883L46.0248 4.82983L46.3885 6.95036C46.4099 7.07542 46.3585 7.20182 46.2558 7.27639C46.1532 7.35097 46.0171 7.36079 45.9048 7.30173L43.9999 6.29999L42.0951 7.30173C41.9828 7.36079 41.8467 7.35097 41.744 7.27639C41.6414 7.20182 41.5899 7.07542 41.6114 6.95036L41.9751 4.82983L40.434 3.32883C40.3431 3.24032 40.3104 3.1079 40.3495 2.98723C40.3886 2.86656 40.4929 2.77856 40.6184 2.76021L42.7485 2.44886L43.701 0.519166C43.7572 0.405398 43.8731 0.333374 43.9999 0.333374ZM43.9999 1.41979L43.2688 2.90092C43.2203 2.9992 43.1266 3.06735 43.0181 3.0832L41.3827 3.32224L42.5658 4.47459C42.6445 4.55117 42.6804 4.66155 42.6618 4.76972L42.3827 6.39727L43.8448 5.62835C43.9419 5.57727 44.058 5.57727 44.1551 5.62835L45.6172 6.39727L45.3381 4.76972C45.3195 4.66155 45.3554 4.55117 45.434 4.47459L46.6171 3.32224L44.9817 3.0832C44.8733 3.06735 44.7795 2.9992 44.731 2.90092L43.9999 1.41979Z" fill="#F2994A"/>
<path d="M42.3333 5L41 3L43 2.66667L44 1L45 2.66667L47 3.33333L45.6667 4.66667L46 7L44 6L42 7L42.3333 5Z" fill="#F2994A"/>
</svg>
